# xmcd
#
# Track frame offsets: 
#        182
#        13482
#        32107
#        41327
#        60212
#        75717
#        95150
#        107550
#        128920
#        141462
#
# Disc length: 2091 seconds
#
# Revision: 3
# Processed by: cddbd v1.4PL0 Copyright (c) Steve Scherf et al.
# Submitted via: ExactAudioCopy v0.90b3
#
DISCID=8508290a
DTITLE=The Desert Rose Band - Running
DYEAR=1900
DGENRE=Country
TTITLE0=She Don't Love Nobody
TTITLE1=Running
TTITLE2=Hello Trouble
TTITLE3=I Still Believe In You
TTITLE4=Summer Wind
TTITLE5=For The Rich Man
TTITLE6=Step On Out
TTITLE7=Homeless
TTITLE8=Livin' In The House
TTITLE9=Our Songs
EXTD=
EXTT0=
EXTT1=
EXTT2=
EXTT3=
EXTT4=
EXTT5=
EXTT6=
EXTT7=
EXTT8=
EXTT9=
PLAYORDER=
